<svg xmlns="http://www.w3.org/2000/svg" width="24" height="24" viewBox="0 0 24 24">
  <g id="settings" opacity="0.8">
    <path id="Frames-24px" d="M0,0H24V24H0Z" fill="none"/>
    <g id="Solid">
      <path id="Path_1" data-name="Path 1" d="M14.5,6a4.458,4.458,0,0,1,.121-1H2V7H14.621A4.458,4.458,0,0,1,14.5,6Z"/>
      <path id="Path_2" data-name="Path 2" d="M14.5,18a4.458,4.458,0,0,1,.121-1H2v2H14.621a4.458,4.458,0,0,1-.121-1Z"/>
      <path id="Path_3" data-name="Path 3" d="M4.5,12a4.458,4.458,0,0,1,.121-1H2v2H4.621A4.458,4.458,0,0,1,4.5,12Z"/>
      <path id="Path_4" data-name="Path 4" d="M13.379,11a4.193,4.193,0,0,1,0,2H22V11Z"/>
      <circle id="Ellipse_1" data-name="Ellipse 1" cx="3" cy="3" r="3" transform="translate(16 3)"/>
      <circle id="Ellipse_2" data-name="Ellipse 2" cx="3" cy="3" r="3" transform="translate(6 9)"/>
      <circle id="Ellipse_3" data-name="Ellipse 3" cx="3" cy="3" r="3" transform="translate(16 15)"/>
    </g>
  </g>
</svg>
